<?xml version="1.0" encoding="UTF-8"?>
<svg xmlns="http://www.w3.org/2000/svg" xmlns:svg="http://www.w3.org/2000/svg" width="24" height="24">
  <title>Open Source Hardware</title>
  <g class="layer">
    <title>Layer 1</title>
    <path d="m23.87,11.53c0.07,0.01 0.13,0.08 0.13,0.15l0,3.03a0.17,0.17 0 0 1 -0.13,0.16l-2.87,0.54a0.24,0.24 0 0 0 -0.18,0.15l-0.89,2.24a0.25,0.25 0 0 0 0.01,0.23l1.64,2.38a0.17,0.17 0 0 1 -0.02,0.2l-2.15,2.15a0.17,0.17 0 0 1 -0.2,0.01l-2.34,-1.6a0.23,0.23 0 0 0 -0.22,-0.01l-1.03,0.55a0.12,0.12 0 0 1 -0.17,-0.06l-2.13,-5.13a0.16,0.16 0 0 1 0.06,-0.2l0.26,-0.15c0.05,-0.03 0.12,-0.08 0.17,-0.13a3.35,3.35 0 1 0 -3.62,0c0.05,0.05 0.12,0.1 0.17,0.13l0.25,0.15a0.16,0.16 0 0 1 0.07,0.2l-2.13,5.13a0.12,0.12 0 0 1 -0.17,0.06l-1.03,-0.55a0.23,0.23 0 0 0 -0.22,0.01l-2.34,1.6a0.17,0.17 0 0 1 -0.2,-0.01l-2.15,-2.15a0.17,0.17 0 0 1 -0.02,-0.2l1.63,-2.38a0.25,0.25 0 0 0 0.02,-0.23l-0.9,-2.24a0.24,0.24 0 0 0 -0.17,-0.15l-2.87,-0.54a0.17,0.17 0 0 1 -0.13,-0.16l0,-3.03c0,-0.07 0.06,-0.14 0.13,-0.15l2.95,-0.55a0.25,0.25 0 0 0 0.17,-0.15l0.9,-2.11a0.25,0.25 0 0 0 -0.01,-0.23l-1.72,-2.5a0.17,0.17 0 0 1 0.02,-0.2l2.15,-2.15a0.17,0.17 0 0 1 0.2,-0.02l2.55,1.75c0.06,0.04 0.16,0.05 0.23,0.02l2.04,-0.84c0.07,-0.02 0.14,-0.1 0.15,-0.17l0.57,-3.05a0.17,0.17 0 0 1 0.15,-0.13l3.04,0c0.07,0 0.14,0.06 0.15,0.13l0.57,3.05a0.25,0.25 0 0 0 0.15,0.17l2.04,0.84a0.25,0.25 0 0 0 0.23,-0.02l2.55,-1.75a0.17,0.17 0 0 1 0.2,0.02l2.15,2.15c0.05,0.05 0.06,0.14 0.02,0.2l-1.72,2.5a0.25,0.25 0 0 0 -0.01,0.23l0.9,2.11a0.26,0.26 0 0 0 0.17,0.15l2.95,0.55" fill="#ffffff" id="svg_1" style="--darkreader-inline-fill: #cc0000;"></path>
  </g>
</svg>
